<?xml version="1.0" standalone="no"?>
<!DOCTYPE svg PUBLIC "-//W3C//DTD SVG 20010904//EN"
 "http://www.w3.org/TR/2001/REC-SVG-20010904/DTD/svg10.dtd">
<svg version="1.0" xmlns="http://www.w3.org/2000/svg"
 width="512.000000pt" height="512.000000pt" viewBox="0 0 512.000000 512.000000"
 preserveAspectRatio="xMidYMid meet">
<metadata>
Created by potrace 1.11, written by Peter Selinger 2001-2013
</metadata>
<g transform="translate(0.000000,512.000000) scale(0.100000,-0.100000)"
fill="#000000" stroke="none">
<path d="M3268 5112 c-25 -10 -54 -52 -88 -125 -16 -36 -30 -68 -30 -70 0 -19
-83 -139 -123 -178 -47 -46 -135 -96 -180 -102 -13 -2 -42 -30 -75 -73 -55
-73 -157 -268 -166 -319 -7 -40 -13 -82 -26 -190 -21 -168 -19 -165 -163 -311
-90 -91 -146 -139 -185 -160 -31 -16 -67 -38 -80 -49 -13 -11 -83 -61 -155
-112 -192 -134 -238 -167 -251 -178 -6 -5 -34 -28 -61 -50 -49 -39 -167 -154
-215 -211 -67 -80 -176 -287 -195 -373 -2 -9 -15 -56 -29 -106 -29 -106 -37
-154 -41 -255 -2 -41 -4 -79 -5 -85 -1 -5 -2 -12 -1 -15 1 -3 4 -39 6 -80 5
-96 18 -215 41 -360 2 -14 6 -43 8 -65 4 -38 9 -73 21 -155 10 -71 19 -207 18
-285 0 -64 -6 -97 -32 -165 -99 -263 -95 -247 -95 -365 -1 -65 5 -130 13 -160
15 -55 68 -173 85 -191 6 -6 29 -34 51 -62 22 -28 44 -51 49 -52 6 0 19 -8 30
-19 51 -46 242 -127 339 -145 15 -2 35 -7 45 -10 9 -2 40 -8 67 -11 28 -4 66
-9 85 -12 52 -9 406 -9 475 0 97 12 206 31 270 49 22 5 47 12 55 13 82 19 218
82 237 112 14 21 14 25 -1 42 -37 40 -240 50 -361 18 -84 -22 -178 -31 -340
-31 -257 -1 -359 16 -564 95 -71 27 -95 42 -151 98 -77 76 -99 119 -107 212
-7 80 14 135 60 154 32 13 41 13 136 -5 35 -6 69 -9 76 -6 7 2 16 2 20 -2 7
-7 12 -8 177 -17 245 -14 1014 -7 1177 11 25 2 66 7 91 9 25 3 56 7 70 10 14
2 36 6 50 9 71 12 106 19 115 25 6 3 18 7 28 8 32 5 117 53 150 84 23 23 31
38 28 57 -5 44 -40 59 -161 68 -74 6 -120 22 -121 42 -3 37 -16 108 -41 217
-11 50 -22 101 -24 115 -3 14 -11 57 -19 95 -57 271 -73 458 -49 562 26 112
50 175 119 313 83 166 117 226 176 304 32 43 62 90 65 105 4 14 17 44 30 67
30 51 52 122 61 194 10 74 9 375 -1 425 -4 22 -9 53 -12 69 -3 16 -7 32 -9 36
-7 11 -18 125 -17 175 3 114 23 147 123 215 130 86 203 195 204 302 0 68 -21
95 -107 139 -42 21 -72 47 -113 98 -30 39 -76 84 -101 102 -53 36 -136 69
-176 69 -47 0 -56 34 -63 230 -4 139 -8 163 -28 194 -15 22 -57 31 -89 18z"/>
</g>
</svg>
